<svg fill="#000000" xmlns="http://www.w3.org/2000/svg"  viewBox="0 0 72 72" width="128px" height="128px" baseProfile="basic"><path d="M36,12c13.255,0,24,10.745,24,24c0,13.255-10.745,24-24,24S12,49.255,12,36C12,22.745,22.745,12,36,12z M44,39	c1.657,0,3-1.343,3-3c0-1.657-1.343-3-3-3c-0.329,0-2.426,0-5,0c0-2.574,0-4.672,0-5c0-1.657-1.343-3-3-3c-1.657,0-3,1.343-3,3	c0,0.328,0,2.426,0,5c-2.574,0-4.671,0-5,0c-1.657,0-3,1.343-3,3c0,1.657,1.343,3,3,3c0.329,0,2.426,0,5,0c0,2.574,0,4.672,0,5	c0,1.657,1.343,3,3,3c1.657,0,3-1.343,3-3c0-0.328,0-2.426,0-5C41.574,39,43.671,39,44,39z"/></svg>